<?xml version="1.0" standalone="no"?>
<!DOCTYPE svg PUBLIC "-//W3C//DTD SVG 20010904//EN"
 "http://www.w3.org/TR/2001/REC-SVG-20010904/DTD/svg10.dtd">
<svg version="1.0" xmlns="http://www.w3.org/2000/svg"
 width="512.000000pt" height="512.000000pt" viewBox="0 0 512.000000 512.000000"
 preserveAspectRatio="xMidYMid meet">

<g transform="translate(0.000000,512.000000) scale(0.100000,-0.100000)"
fill="#000000" stroke="none">
<path d="M4670 4675 c-30 -7 -95 -29 -145 -48 -49 -20 -1030 -391 -2180 -827
-1149 -435 -2110 -800 -2135 -811 -204 -90 -269 -279 -145 -417 24 -26 65 -60
92 -74 26 -14 266 -106 533 -203 267 -98 490 -182 497 -189 6 -6 122 -265 258
-576 135 -311 255 -587 268 -615 27 -62 117 -154 177 -183 107 -51 223 -48
338 9 67 33 93 55 355 302 92 87 173 157 180 154 7 -3 239 -161 517 -352 278
-192 528 -359 557 -372 207 -95 421 -17 518 190 30 64 75 268 397 1822 396
1911 387 1861 345 1983 -58 166 -241 255 -427 207z m138 -297 c7 -7 12 -26 12
-43 0 -48 -719 -3514 -736 -3546 -24 -47 -58 -64 -102 -50 -20 6 -239 151
-487 321 -247 171 -635 438 -862 593 -227 155 -411 285 -410 288 1 4 337 314
747 689 856 784 886 813 901 858 31 94 -56 201 -155 189 -26 -3 -108 -41 -226
-104 -194 -105 -1559 -837 -1956 -1049 -127 -68 -238 -124 -247 -124 -8 0 -51
13 -94 29 -43 17 -240 89 -438 162 -198 72 -363 134 -367 138 -4 3 140 62 320
130 180 68 746 282 1257 476 512 194 1218 462 1570 595 352 133 753 285 890
338 346 131 358 135 383 110z m-2088 -1571 c-8 -8 -204 -187 -435 -399 -231
-211 -427 -393 -435 -403 -12 -14 -16 -68 -22 -259 -4 -133 -9 -257 -10 -278
-3 -31 -26 17 -162 330 -88 201 -156 367 -150 369 5 2 279 150 609 328 330
178 604 324 610 324 5 1 3 -5 -5 -12z m-405 -1298 c96 -66 177 -124 179 -128
4 -6 -347 -342 -365 -349 -5 -2 -9 132 -9 297 0 187 4 301 10 301 5 0 88 -54
185 -121z"/>
</g>
</svg>
